:SAMPLES-PER-SECOND 30
:FULLY-SPECIFIED
:DEGREES
372
root  58.0828 38.6693 -4.97062 -165.977 10.888 178.039
RightUpLeg  -33.3479 -14.4904 -11.1658
RightLeg  6.97844 -10.454 2.51333
RightFoot  5.26361 -0.746153 5.36168
RightToes  0.000482159 0.542163 -0.142577
Spine  49.8795 -3.59061 4.21391
Spine1  17.4836 -0.112029 -3.86248
HEad  -14.932 -11.786 4.31125
LeftShoulder1  8.09044 -22.5778 -24.6822
LeftArm  -25.026 -43.1054 -30.7306
LeftForeArm  25.2234 -10.3729 -2.77287
LeftHand  -0.25398 0.0180481 5.50724
RightShoulder  4.13768 13.3817 17.9471
RightArm  -33.4793 48.4885 12.7584
RightForeArm  -1.24817 5.78534 4.60854
RightHand  -0.786096 1.40362 -13.5647
LeftUpLeg  -38.8345 27.4012 -17.7767
LeftLeg  17.5758 -0.565481 -1.75399
LeftFoot  0.954558 -1.01892 9.384
LeftToes  1.06247e-005 4.65855e-005 -8.18504e-006
373
root  59.032 38.473 -4.92237 -163.657 8.50461 177.458
RightUpLeg  -36.308 -15.4648 -10.3067
RightLeg  8.03985 -9.40418 3.08999
RightFoot  9.93211 -0.851992 4.92715
RightToes  0.000482159 0.542163 -0.142577
Spine  51.6187 -3.85763 4.70841
Spine1  17.8398 -0.381962 -3.21707
HEad  -18.9084 -11.8884 5.55767
LeftShoulder1  7.69699 -22.6955 -22.9779
LeftArm  -27.134 -49.2182 -29.0681
LeftForeArm  24.4737 -8.44763 -2.33089
LeftHand  -0.25398 0.0180481 5.50724
RightShoulder  3.90459 13.9582 15.5956
RightArm  -36.8254 49.2607 10.0289
RightForeArm  -2.1424 4.35984 3.94578
RightHand  -0.684926 1.02664 -12.5008
LeftUpLeg  -43.6056 28.5811 -20.8855
LeftLeg  19.4821 -5.30316 -1.74989
LeftFoot  1.1719 -0.916806 8.28011
LeftToes  1.06247e-005 4.65855e-005 -8.18504e-006
374
root  59.9532 38.2385 -4.92265 -160.809 6.80792 177.693
RightUpLeg  -41.5586 -19.2 -5.78584
RightLeg  11.5585 -6.93057 2.98315
RightFoot  12.4059 -0.596358 3.22634
RightToes  0.000482159 0.542163 -0.142577
Spine  53.5505 -4.22874 6.02328
Spine1  17.4236 0.257884 -3.80881
HEad  -22.0068 -12.6285 6.50421
LeftShoulder1  7.36465 -23.2194 -21.0378
LeftArm  -29.9329 -54.8133 -26.6536
LeftForeArm  23.7535 -6.89053 -1.81203
LeftHand  -0.25398 0.0180481 5.50724
RightShoulder  3.77665 14.3439 14.2871
RightArm  -40.2872 49.6889 5.88451
RightForeArm  -2.93173 2.85296 3.39459
RightHand  -0.576653 0.807816 -10.9049
LeftUpLeg  -48.1987 27.7899 -20.9657
LeftLeg  22.0953 -6.58708 -2.59029
LeftFoot  1.02241 -0.772976 7.06699
LeftToes  1.06247e-005 4.65855e-005 -8.18504e-006
375
root  60.806 37.9834 -4.97789 -157.819 5.39853 178.715
RightUpLeg  -49.036 -25.5799 3.93922
RightLeg  16.0279 0.124975 2.46338
RightFoot  11.1354 -0.15175 1.13081
RightToes  0.000482159 0.542163 -0.142577
Spine  55.5557 -4.86452 7.59246
Spine1  16.7293 0.968571 -4.73242
HEad  -24.9152 -12.7642 6.90832
LeftShoulder1  7.02542 -23.5487 -19.3367
LeftArm  -34.0828 -59.3436 -22.3228
LeftForeArm  22.5093 -6.17583 -1.38698
LeftHand  -0.25398 0.0180481 5.50724
RightShoulder  3.64033 15.1438 12.4781
RightArm  -44.1041 50.1004 1.43163
RightForeArm  -3.62043 0.979702 2.7041
RightHand  -0.47598 0.733198 -9.12329
LeftUpLeg  -53.5689 28.262 -21.1121
LeftLeg  25.2195 -8.41633 -3.97339
LeftFoot  0.633784 -0.634845 6.0095
LeftToes  1.06247e-005 4.65855e-005 -8.18504e-006
376
root  61.61 37.73 -5.06165 -155.196 3.96014 179.985
RightUpLeg  -56.2961 -29.7211 13.9457
RightLeg  19.9905 6.32718 2.46854
RightFoot  8.53999 0.19546 -0.773881
RightToes  0.000482159 0.542163 -0.142577
Spine  57.6153 -5.37512 8.91279
Spine1  16.1104 1.47784 -5.08434
HEad  -27.2864 -12.5123 6.94795
LeftShoulder1  6.66535 -23.8961 -17.5652
LeftArm  -39.8635 -62.7035 -16.1876
LeftForeArm  20.6602 -5.87416 -0.910383
LeftHand  -0.25398 0.0180481 5.50724
RightShoulder  3.45194 15.9922 10.4543
RightArm  -48.1109 50.5083 -3.54811
RightForeArm  -4.97789 -0.994985 2.0567
RightHand  -0.382056 0.619376 -7.46806
LeftUpLeg  -59.309 30.0134 -22.3816
LeftLeg  28.1267 -9.84066 -5.31752
LeftFoot  0.400525 -0.525101 5.08295
LeftToes  1.06247e-005 4.65855e-005 -8.18504e-006
377
root  62.3941 37.4809 -5.16442 -152.724 2.58005 -179.177
RightUpLeg  -61.0699 -30.0859 19.05
RightLeg  23.0916 7.11005 3.05424
RightFoot  6.79738 0.411805 -2.27827
RightToes  0.000482159 0.542163 -0.142577
Spine  59.497 -5.39908 9.47975
Spine1  15.8234 1.80036 -4.64612
HEad  -29.1205 -12.1897 6.87
LeftShoulder1  6.35177 -24.3872 -15.8768
LeftArm  -47.1509 -65.2131 -8.45053
LeftForeArm  18.3887 -5.53258 -0.34651
LeftHand  -0.25398 0.0180481 5.50724
RightShoulder  3.19213 16.4199 8.57244
RightArm  -52.1803 50.8192 -8.65292
RightForeArm  -7.4501 -2.44635 1.56308
RightHand  -0.312497 0.482812 -6.25266
LeftUpLeg  -65.5197 32.1563 -25.8737
LeftLeg  29.9659 -9.50177 -5.53385
LeftFoot  0.565412 -0.505996 4.81314
LeftToes  1.06247e-005 4.65855e-005 -8.18504e-006
378
root  63.1286 37.2384 -5.30712 -149.969 1.41019 -179.102
RightUpLeg  -65.7851 -29.8051 22.7408
RightLeg  25.9198 6.78017 3.35056
RightFoot  5.41952 0.549308 -3.47495
RightToes  0.000482159 0.542163 -0.142577
Spine  60.9438 -5.24258 9.28415
Spine1  15.7514 1.9106 -4.24825
HEad  -30.4304 -11.795 6.77218
LeftShoulder1  6.0637 -24.9859 -14.245
LeftArm  -55.418 -66.7397 0.579942
LeftForeArm  15.7092 -5.21326 0.196955
LeftHand  -0.25398 0.0180481 5.50724
RightShoulder  2.89394 16.4554 6.87104
RightArm  -56.109 50.9762 -12.9039
RightForeArm  -10.5735 -2.96388 1.14401
RightHand  -0.285374 0.530657 -5.6715
LeftUpLeg  -71.7991 33.4164 -31.3434
LeftLeg  30.3663 -7.84891 -4.60228
LeftFoot  0.750482 -0.630378 5.90689
LeftToes  1.06247e-005 4.65855e-005 -8.18504e-006
